Coordinates
version=1
nRows=11
nColumns=36
inDegrees=yes

Units are S.I. units (second, meters, Newtons, ...)
If the header above contains a line with 'inDegrees', this indicates whether rotational values are in degrees (yes) or radians (no).

endheader
time	pelvis_tilt	pelvis_list	pelvis_rotation	pelvis_tx	pelvis_ty	pelvis_tz	hip_flexion_r	hip_adduction_r	hip_rotation_r	knee_angle_r	knee_angle_r_beta	ankle_angle_r	subtalar_angle_r	mtp_angle_r	hip_flexion_l	hip_adduction_l	hip_rotation_l	knee_angle_l	knee_angle_l_beta	ankle_angle_l	subtalar_angle_l	mtp_angle_l	lumbar_extension	lumbar_bending	lumbar_rotation	arm_flex_r	arm_add_r	arm_rot_r	elbow_flex_r	pro_sup_r	arm_flex_l	arm_add_l	arm_rot_l	elbow_flex_l	pro_sup_l
      5.05000000	      3.31849363	     12.88607476	     15.70702657	      0.64115793	      0.93850001	      0.32301844	    -16.07732943	    -11.06243153	      6.45068732	      0.39076577	      0.00682015	      6.48476097	    -16.41325219	     -7.49999987	      4.13751477	      5.20032310	      1.73301903	      9.22558404	      0.16101682	    -29.41236445	    -34.73497562	     -7.49999987	    -26.29962913	    -13.59246987	      4.16322418	     -4.43194126	     -5.93059468	    -14.60579847	     30.34014717	     69.87746713	     22.35707856	    -16.04318845	      6.44171537	     24.79513488	     70.50813545
      5.06666670	      3.11692156	     13.37909513	     16.57321610	      0.64780261	      0.93899843	      0.31850289	    -16.39864339	    -11.61443527	      6.37720116	      0.47832501	      0.00834835	      5.70648641	    -18.04276894	     -7.49999987	      4.40047969	      6.64873178	     -0.13586418	      9.33351934	      0.16290064	    -29.50348712	    -34.73821708	     -7.49999987	    -26.26324294	    -13.88294949	      4.22206355	     -4.48304094	     -5.86052204	    -14.80093637	     31.13691292	     70.94767588	     21.21405472	    -15.10926539	      7.93768520	     23.85160612	     70.35023223
      5.08333330	      2.88458967	     13.79002888	     17.53847167	      0.65002579	      0.94510704	      0.31381801	    -16.70815507	    -12.08010129	      6.23794526	      0.61867080	      0.01079784	      4.60945221	    -19.61620654	     -7.49999987	      4.63897809	      8.04047381	     -2.07026858	      9.26520952	      0.16170841	    -29.60919011	    -34.74166168	     -7.49999987	    -26.16628648	    -14.07755835	      4.47352725	     -4.62538590	     -5.78896106	    -14.77684705	     31.79775538	     71.41631298	     19.93420154	    -14.15843371	      9.57510879	     23.00822604	     69.05254218
      5.10000000	      2.77888338	     14.03039827	     18.53344250	      0.64811674	      0.94760172	      0.31176228	    -16.89688579	    -12.31135343	      6.22963090	      0.82464452	      0.01439276	      3.15381433	    -21.30312307	     -7.49999987	      4.90716524	      9.10925028	     -4.57265097	      9.15182492	      0.15972948	    -29.71288928	    -34.74581502	     -7.49999987	    -26.37620066	    -14.02485239	      4.87450086	     -4.63342458	     -5.88085455	    -14.44908871	     32.70843437	     71.65802399	     18.69568908	    -13.28116118	     11.09420631	     22.28860917	     67.34789062
      5.11666670	      2.67264365	     14.26128351	     19.70973455	      0.65028945	      0.94872747	      0.30758142	    -17.19484695	    -12.45406780	      5.90114404	      1.19770298	      0.02090386	      1.94698803	    -22.61335861	     -7.49999987	      5.17604406	     10.01901130	     -7.17901120	      9.29325692	      0.16219793	    -29.93297574	    -34.75247905	     -7.49999987	    -26.59840063	    -14.01066595	      5.23006741	     -4.56552000	     -5.65466830	    -15.55704141	     33.48526073	     74.69418292	     17.70231244	    -12.50342787	     12.01028974	     21.42435885	     66.95712075
      5.13333330	      2.59621503	     14.40171880	     20.77589505	      0.65478850	      0.94480802	      0.30141519	    -17.48682585	    -12.53740899	      5.48566347	      1.75704230	      0.03066617	      1.31232501	    -23.54985901	     -7.49999987	      5.50281911	     10.73959565	     -9.87541500	      9.80656668	      0.17115688	    -29.46607661	    -34.76167579	     -7.49999987	    -26.65049373	    -13.99568261	      5.55319873	     -4.35565491	     -5.71945858	    -15.15554074	     33.80244077	     73.93004910	     16.26191631	    -11.88878076	     11.49259615	     20.78315962	     66.02776494
      5.15000000	      2.50560819	     14.44840837	     22.04718271	      0.65759611	      0.93964475	      0.29793791	    -17.70673128	    -12.49383663	      5.16947858	      2.55823554	      0.04464963	      0.48502370	    -25.02950365	     -7.49999987	      5.88559943	     11.28357290	    -12.58653247	     10.39269312	      0.18138671	    -28.55295385	    -34.77307844	     -7.49999987	    -26.70940212	    -13.91074338	      6.03894282	     -4.16421080	     -5.73629858	    -15.13726352	     34.24594202	     74.62007965	     14.94285600	    -11.59355279	     11.42018593	     20.01094853	     65.68962822
      5.16666670	      2.48634104	     14.39944006	     23.50550353	      0.65797478	      0.93602479	      0.29370766	    -17.84014291	    -12.33699274	      4.70226121	      3.62606711	      0.06328681	      0.31860270	    -25.76506798	     -7.49999987	      6.21005454	     11.59871999	    -15.17158828	     11.09475611	      0.19364002	    -27.53131439	    -34.78546404	     -7.49999987	    -26.92731362	    -13.71268965	      6.33405452	     -3.82288827	     -5.65888384	    -15.32837812	     34.52805975	     74.87790453	     13.91527997	    -11.62035271	     11.45120613	     19.40674887	     65.70714177
      5.18333330	      2.20891114	     14.12811086	     25.05151029	      0.66126261	      0.93660227	      0.28719851	    -17.53894056	    -12.07897359	      4.54760728	      4.99069146	      0.08710400	     -0.57753870	    -27.48513525	     -7.49999987	      6.69561534	     11.73281557	    -17.55623255	     11.76803800	      0.20539101	    -26.54163548	    -34.79613136	     -7.49999987	    -26.62964629	    -13.46607944	      7.03990768	     -3.59184953	     -5.52083693	    -15.96158354	     34.65920715	     75.90163796	     13.09111847	    -11.67365438	     10.97565643	     18.39039822	     65.63046693
      5.20000000	      1.96875985	     13.98009843	     26.81920839	      0.66654752	      0.93776833	      0.28174763	    -17.62732252	    -11.81774518	      4.00136035	      6.17227485	      0.10772652	     -0.51618094	    -28.11287815	     -7.49999987	      6.84104292	     11.93461367	    -19.62652716	     12.32291326	      0.21507541	    -25.75745751	    -34.80556645	     -7.49999987	    -26.47473441	    -13.30832049	      7.46428945	     -3.35622749	     -5.25962938	    -16.39563572	     34.66845097	     76.44022984	     12.36700627	    -12.17885236	     10.50584382	     17.56478417	     65.56567503
      5.21666670	      1.68740560	     13.70580098	     28.69038363	      0.66630822	      0.93518840	      0.27631722	    -17.57556463	    -11.48339167	      3.49361416	      7.57020078	      0.13212493	     -1.03043433	    -28.83489365	     -7.49999987	      6.85290642	     12.15870096	    -21.19845046	     12.43076822	      0.21695783	    -24.85492421	    -34.81254739	     -7.49999987	    -26.19780402	    -13.05629504	      8.09340532	     -3.00291612	     -4.90410858	    -18.10841602	     34.59607288	     81.75726087	     11.65713627	    -12.70530738	      8.00753969	     17.15704286	     66.73834086
